<svg id="Layer_1" xmlns="http://www.w3.org/2000/svg" viewBox="0 0 48 48"><style>.st0,.st1{fill:none;stroke:#000;stroke-width:2;stroke-linecap:round;stroke-miterlimit:10}.st1{stroke-linejoin:round}</style><g id="Layer_1_158_"><path d="M28.8 28.7v-2.3c1-.5 1.6-1.1 1.6-2 0-.3-.1-.6-.3-.9.2-.3.3-.6.3-.9 0-.5-.2-.9-.6-1.3 3.2-2 5.4-5.5 5.4-9.6C35.2 5.5 30.2.5 24 .5s-11.2 5-11.2 11.2c0 4 2.2 7.6 5.4 9.6-.4.4-.6.8-.6 1.3 0 .3.1.6.3.9-.2.3-.3.6-.3.9 0 .9.6 1.6 1.6 2v2.3c-9 1.3-10.7 6.1-10.7 7.2V39c0 1.2 1 2.1 2.1 2.1h26.7c1.2 0 2.1-1 2.1-2.1v-3.2c.1-1.1-1.6-5.9-10.6-7.1zM24 4.8c3.8 0 6.9 3.1 6.9 6.9s-3.1 6.9-6.9 6.9-6.9-3.1-6.9-6.9 3.1-6.9 6.9-6.9z"/><path id="XMLID_3_" d="M36 43.2H12c-1.2 0-2.1 1-2.1 2.1 0 1.2 1 2.1 2.1 2.1h24c1.2 0 2.1-1 2.1-2.1.1-1.1-.9-2.1-2.1-2.1z"/></g><path id="XMLID_2_" class="st0" d="M24 11.5V5.9"/><path id="XMLID_1_" class="st1" d="M24 11.5l3.5 2.4"/></svg>